<svg width="85" height="85" viewBox="0 0 85 85" fill="none" xmlns="http://www.w3.org/2000/svg">
<circle cx="42.5" cy="42.5" r="42" stroke="white"/>
<path d="M60.0765 43.0068C60.0768 41.9762 59.9877 40.9474 59.8109 39.932L58.3486 40.1875C59.4372 46.4263 56.8201 52.7317 51.6337 56.3657L50.4382 54.4139C50.0338 53.7594 49.9986 52.9419 50.3447 52.2548L50.6821 51.5804C50.8071 51.3286 51.0644 51.1695 51.3456 51.1706H52.3922C53.3036 51.1735 54.124 50.6183 54.4599 49.7711L55.4641 47.2594C55.5699 46.9967 55.6243 46.7155 55.6235 46.4321V44.7992C55.6246 44.4053 55.4681 44.027 55.1887 43.749L54.2979 42.8586C53.8464 42.4064 53.1561 42.2944 52.5842 42.5803L50.7578 43.4939C50.5491 43.5983 50.3034 43.5983 50.0943 43.4939L47.1257 42.0096C46.8749 41.8842 46.7169 41.6276 46.7176 41.3475V39.2961C46.7176 38.4763 46.053 37.8117 45.2333 37.8117C44.8235 37.8117 44.4912 37.4794 44.4912 37.0696V36.3274C44.4912 36.0941 44.6013 35.8741 44.788 35.7338L47.163 33.9527L46.2723 32.7652L43.8976 34.5463C43.3384 34.9681 43.0087 35.6273 43.0069 36.3274V37.0696C43.0069 38.2991 44.0038 39.2961 45.2333 39.2961V41.3475C45.2304 42.1915 45.7077 42.9637 46.464 43.3388L49.4326 44.8231C50.0599 45.1351 50.797 45.1351 51.4243 44.8231L53.251 43.9103L54.1414 44.8006V46.4335C54.1418 46.5278 54.1233 46.6212 54.0881 46.7089L53.0832 49.221C52.9716 49.5036 52.698 49.6888 52.3943 49.6877H51.3478C50.5038 49.6848 49.7316 50.1621 49.3569 50.9184L49.0191 51.5931C48.4422 52.7379 48.5009 54.1004 49.1742 55.1916L50.3839 57.1666C45.812 59.7985 40.2477 60.05 35.457 57.842L36.3677 57.234C36.4887 57.1528 36.6311 57.1089 36.7771 57.1079H38.6807C39.2718 57.1097 39.8389 56.8748 40.2557 56.4556L42.3546 54.3567C42.7735 53.9399 43.0087 53.3728 43.0069 52.7817V49.354C43.0069 48.9517 42.8978 48.5571 42.6916 48.2117L41.1062 45.5606C40.7007 44.8985 39.9806 44.4937 39.204 44.4912H37.1214C36.376 44.4904 35.6795 44.8626 35.266 45.4826L34.4459 46.7176H32.6166C31.7969 46.7176 31.1323 47.3822 31.1323 48.202V49.6196C31.1323 49.8715 31.0044 50.1063 30.7924 50.2429L28.4768 51.7363C26.816 49.1278 25.9347 46.0991 25.9372 43.0068C25.9372 42.7583 25.9445 42.5111 25.9557 42.2647H27.2465C27.5277 42.264 27.785 42.4231 27.91 42.6753L28.779 44.4169C29.0302 44.9195 29.5447 45.2359 30.1068 45.2333H30.8903C31.3566 45.234 31.7962 45.0159 32.0771 44.6437C32.3583 44.2716 32.4481 43.7892 32.3199 43.341L31.3744 40.0382H32.8391C33.345 40.0382 33.8353 39.8661 34.23 39.5501L36.6525 37.6121C37.4327 36.9859 37.7005 35.9168 37.3077 34.9968L36.0372 32.0281C35.8908 31.6868 36.0194 31.29 36.3379 31.099L38.2067 29.9778C38.884 29.5694 39.2953 28.833 39.2877 28.0419L39.2754 26.9562C41.6689 26.5069 44.1331 26.5996 46.4861 27.228L46.8662 25.797C39.4954 23.826 31.6879 26.7682 27.4513 33.1135C23.2147 39.4588 23.4897 47.7975 28.1354 53.8497C32.7812 59.9022 40.7655 62.3233 47.9903 59.8707C55.2151 57.4181 60.0754 50.6364 60.0765 43.0068ZM37.7933 27.3074L37.802 28.0629C37.8052 28.3268 37.6679 28.5721 37.4414 28.7076L35.5719 29.8292C34.6203 30.405 34.2365 31.5929 34.6717 32.6166L35.9422 35.5853C36.0738 35.8918 35.9846 36.2488 35.7241 36.4575L33.3015 38.3952C33.17 38.4988 33.0069 38.5546 32.8391 38.5539H31.3744C30.908 38.5532 30.4684 38.7717 30.1876 39.1439C29.9064 39.5157 29.8165 39.9984 29.9448 40.4466L30.8903 43.749H30.1068L29.2374 42.011C28.8627 41.2547 28.0905 40.7775 27.2465 40.7804H26.093C26.9867 34.3713 31.5726 29.0907 37.7933 27.3074ZM29.3288 52.9517L31.5969 51.4898C32.2336 51.0811 32.6177 50.3759 32.6166 49.6196V48.202H34.4459C34.9424 48.202 35.4059 47.9537 35.6809 47.5406L36.5039 46.306C36.6416 46.0994 36.8735 45.9755 37.1214 45.9755H39.204C39.4609 45.9758 39.6998 46.1088 39.8349 46.3274L41.4171 48.9738C41.4863 49.0887 41.5225 49.2199 41.5225 49.354V52.7817C41.5225 52.9789 41.4446 53.168 41.3051 53.3072L39.2062 55.4061C39.067 55.5456 38.8779 55.6239 38.6807 55.6235H36.7771C36.3372 55.6235 35.9067 55.754 35.5407 55.9982L33.9578 57.0553C32.1695 55.9924 30.5985 54.5998 29.3288 52.9517Z" fill="white"/>
</svg>
